<svg width="53" height="37" viewBox="0 0 53 37" fill="none" xmlns="http://www.w3.org/2000/svg">
<path d="M34.346 0C44.5632 0 52.846 8.28273 52.846 18.5C52.846 28.5044 44.9047 36.654 34.982 36.9893L34.346 37H18.5C8.28273 37 0 28.7173 0 18.5C0 8.49559 7.94121 0.345953 17.864 0.0107269L18.5 0H34.346ZM34.346 3.96429H18.5C10.4721 3.96429 3.96429 10.4721 3.96429 18.5C3.96429 26.3321 10.1586 32.7174 17.9154 33.0242L18.5 33.0357H34.346C42.3738 33.0357 48.8817 26.5279 48.8817 18.5C48.8817 10.6679 42.6874 4.28265 34.9306 3.97583L34.346 3.96429ZM15.8516 10.5714C16.9463 10.5714 17.8337 11.4589 17.8337 12.5536L17.8314 16.5126L21.798 16.5145C22.8927 16.5145 23.7801 17.402 23.7801 18.4967C23.7801 19.5914 22.8927 20.4788 21.798 20.4788L17.8314 20.4769L17.8337 24.4464C17.8337 25.5411 16.9463 26.4286 15.8516 26.4286C14.7568 26.4286 13.8694 25.5411 13.8694 24.4464L13.8671 20.4769L9.90512 20.4788C8.81041 20.4788 7.92298 19.5914 7.92298 18.4967C7.92298 17.402 8.81041 16.5145 9.90512 16.5145L13.8671 16.5126L13.8694 12.5536C13.8694 11.4589 14.7568 10.5714 15.8516 10.5714ZM33.6908 19.8214C35.5153 19.8214 36.9944 21.3005 36.9944 23.125C36.9944 24.9495 35.5153 26.4286 33.6908 26.4286C31.8663 26.4286 30.3873 24.9495 30.3873 23.125C30.3873 21.3005 31.8663 19.8214 33.6908 19.8214ZM38.9765 10.5714C40.8011 10.5714 42.2801 12.0505 42.2801 13.875C42.2801 15.6995 40.8011 17.1786 38.9765 17.1786C37.152 17.1786 35.673 15.6995 35.673 13.875C35.673 12.0505 37.152 10.5714 38.9765 10.5714Z" fill="white"/>
</svg>
