<svg width="1257" height="397" viewBox="0 0 1257 397" fill="none" xmlns="http://www.w3.org/2000/svg">
<g clip-path="url(#clip0_33_529)">
<rect width="1257" height="397" rx="20" fill="#2C2B2B"/>
<path d="M429.102 97.2955V94.9091H450.196V97.2955H440.977V124H438.321V97.2955H429.102ZM460.967 124.455C459.082 124.455 457.415 123.976 455.967 123.02C454.527 122.063 453.4 120.742 452.586 119.057C451.772 117.362 451.364 115.406 451.364 113.19C451.364 110.955 451.772 108.991 452.586 107.295C453.4 105.591 454.527 104.265 455.967 103.318C457.415 102.362 459.082 101.884 460.967 101.884C462.851 101.884 464.513 102.362 465.952 103.318C467.392 104.275 468.519 105.6 469.333 107.295C470.157 108.991 470.569 110.955 470.569 113.19C470.569 115.406 470.162 117.362 469.347 119.057C468.533 120.742 467.401 122.063 465.952 123.02C464.513 123.976 462.851 124.455 460.967 124.455ZM460.967 122.139C462.482 122.139 463.765 121.732 464.816 120.918C465.867 120.103 466.663 119.019 467.202 117.665C467.752 116.311 468.026 114.819 468.026 113.19C468.026 111.562 467.752 110.065 467.202 108.702C466.663 107.338 465.867 106.244 464.816 105.42C463.765 104.597 462.482 104.185 460.967 104.185C459.461 104.185 458.178 104.597 457.117 105.42C456.066 106.244 455.266 107.338 454.717 108.702C454.177 110.065 453.907 111.562 453.907 113.19C453.907 114.819 454.177 116.311 454.717 117.665C455.266 119.019 456.066 120.103 457.117 120.918C458.168 121.732 459.451 122.139 460.967 122.139ZM484.713 102.182V104.384H474.301V102.182H484.713ZM477.554 96.9545H480.097V118.304C480.097 119.213 480.253 119.928 480.565 120.449C480.878 120.96 481.285 121.325 481.787 121.543C482.289 121.751 482.824 121.855 483.392 121.855C483.723 121.855 484.008 121.836 484.244 121.798C484.481 121.751 484.689 121.704 484.869 121.656L485.409 123.943C485.163 124.038 484.86 124.123 484.5 124.199C484.14 124.284 483.695 124.327 483.165 124.327C482.237 124.327 481.342 124.123 480.48 123.716C479.628 123.309 478.927 122.703 478.378 121.898C477.829 121.093 477.554 120.094 477.554 118.901V96.9545ZM496.549 124.497C495.233 124.497 494.03 124.241 492.941 123.73C491.852 123.209 490.986 122.461 490.342 121.486C489.698 120.501 489.376 119.308 489.376 117.906C489.376 116.827 489.579 115.918 489.987 115.179C490.394 114.44 490.971 113.834 491.719 113.361C492.468 112.887 493.353 112.513 494.376 112.239C495.398 111.964 496.525 111.751 497.756 111.599C498.978 111.448 500.01 111.315 500.853 111.202C501.705 111.088 502.354 110.908 502.799 110.662C503.244 110.416 503.467 110.018 503.467 109.469V108.957C503.467 107.471 503.022 106.301 502.131 105.449C501.251 104.587 499.982 104.156 498.325 104.156C496.753 104.156 495.469 104.502 494.475 105.193C493.49 105.884 492.799 106.699 492.401 107.636L490.001 106.77C490.493 105.577 491.175 104.625 492.046 103.915C492.917 103.195 493.893 102.679 494.972 102.366C496.052 102.045 497.146 101.884 498.254 101.884C499.087 101.884 499.953 101.992 500.853 102.21C501.762 102.428 502.605 102.807 503.381 103.347C504.158 103.877 504.788 104.62 505.271 105.577C505.754 106.524 505.995 107.726 505.995 109.185V124H503.467V120.548H503.31C503.007 121.192 502.558 121.817 501.961 122.423C501.364 123.029 500.616 123.527 499.717 123.915C498.817 124.303 497.761 124.497 496.549 124.497ZM496.89 122.182C498.235 122.182 499.399 121.884 500.384 121.287C501.369 120.69 502.127 119.9 502.657 118.915C503.197 117.92 503.467 116.827 503.467 115.634V112.48C503.277 112.66 502.96 112.821 502.515 112.963C502.079 113.105 501.573 113.233 500.995 113.347C500.427 113.451 499.859 113.541 499.29 113.616C498.722 113.692 498.211 113.759 497.756 113.815C496.525 113.967 495.474 114.204 494.603 114.526C493.732 114.848 493.064 115.293 492.6 115.861C492.136 116.42 491.904 117.139 491.904 118.02C491.904 119.346 492.378 120.373 493.325 121.102C494.272 121.822 495.46 122.182 496.89 122.182ZM515.249 94.9091V124H512.721V94.9091H515.249ZM538.772 124L530.803 94.9091H533.502L540.093 119.923H540.32L546.911 94.9091H549.979L556.57 119.923H556.798L563.388 94.9091H566.102L558.133 124H555.292L548.545 99.3267H548.36L541.613 124H538.772ZM574.44 124.497C573.123 124.497 571.921 124.241 570.832 123.73C569.743 123.209 568.876 122.461 568.232 121.486C567.588 120.501 567.266 119.308 567.266 117.906C567.266 116.827 567.47 115.918 567.877 115.179C568.284 114.44 568.862 113.834 569.61 113.361C570.358 112.887 571.244 112.513 572.266 112.239C573.289 111.964 574.416 111.751 575.647 111.599C576.869 111.448 577.901 111.315 578.744 111.202C579.596 111.088 580.245 110.908 580.69 110.662C581.135 110.416 581.357 110.018 581.357 109.469V108.957C581.357 107.471 580.912 106.301 580.022 105.449C579.141 104.587 577.872 104.156 576.215 104.156C574.643 104.156 573.36 104.502 572.366 105.193C571.381 105.884 570.69 106.699 570.292 107.636L567.891 106.77C568.384 105.577 569.066 104.625 569.937 103.915C570.808 103.195 571.783 102.679 572.863 102.366C573.942 102.045 575.036 101.884 576.144 101.884C576.978 101.884 577.844 101.992 578.744 102.21C579.653 102.428 580.496 102.807 581.272 103.347C582.049 103.877 582.678 104.62 583.161 105.577C583.644 106.524 583.886 107.726 583.886 109.185V124H581.357V120.548H581.201C580.898 121.192 580.448 121.817 579.852 122.423C579.255 123.029 578.507 123.527 577.607 123.915C576.708 124.303 575.652 124.497 574.44 124.497ZM574.781 122.182C576.125 122.182 577.29 121.884 578.275 121.287C579.26 120.69 580.017 119.9 580.548 118.915C581.087 117.92 581.357 116.827 581.357 115.634V112.48C581.168 112.66 580.851 112.821 580.406 112.963C579.97 113.105 579.463 113.233 578.886 113.347C578.317 113.451 577.749 113.541 577.181 113.616C576.613 113.692 576.102 113.759 575.647 113.815C574.416 113.967 573.365 114.204 572.494 114.526C571.622 114.848 570.955 115.293 570.491 115.861C570.027 116.42 569.795 117.139 569.795 118.02C569.795 119.346 570.268 120.373 571.215 121.102C572.162 121.822 573.351 122.182 574.781 122.182ZM593.14 94.9091V124H590.612V94.9091H593.14ZM602.359 94.9091V124H599.83V94.9091H602.359ZM617.87 124.455C615.834 124.455 614.073 123.981 612.586 123.034C611.099 122.078 609.949 120.757 609.134 119.071C608.329 117.376 607.927 115.425 607.927 113.219C607.927 111.022 608.329 109.071 609.134 107.366C609.949 105.652 611.071 104.312 612.501 103.347C613.94 102.371 615.602 101.884 617.487 101.884C618.67 101.884 619.811 102.101 620.91 102.537C622.008 102.963 622.993 103.621 623.864 104.511C624.745 105.392 625.441 106.505 625.952 107.849C626.464 109.185 626.719 110.766 626.719 112.594V113.844H609.674V111.614H624.134C624.134 110.212 623.85 108.953 623.282 107.835C622.723 106.708 621.942 105.818 620.938 105.165C619.944 104.511 618.793 104.185 617.487 104.185C616.104 104.185 614.887 104.554 613.836 105.293C612.785 106.031 611.961 107.007 611.364 108.219C610.777 109.431 610.479 110.757 610.469 112.196V113.531C610.469 115.264 610.768 116.779 611.364 118.077C611.97 119.365 612.827 120.364 613.935 121.074C615.043 121.784 616.355 122.139 617.87 122.139C618.902 122.139 619.807 121.978 620.583 121.656C621.369 121.334 622.027 120.903 622.558 120.364C623.097 119.814 623.504 119.213 623.779 118.56L626.18 119.341C625.848 120.259 625.304 121.107 624.546 121.884C623.798 122.66 622.861 123.285 621.734 123.759C620.616 124.223 619.328 124.455 617.87 124.455ZM640.885 102.182V104.384H630.473V102.182H640.885ZM633.726 96.9545H636.268V118.304C636.268 119.213 636.425 119.928 636.737 120.449C637.05 120.96 637.457 121.325 637.959 121.543C638.461 121.751 638.996 121.855 639.564 121.855C639.895 121.855 640.179 121.836 640.416 121.798C640.653 121.751 640.861 121.704 641.041 121.656L641.581 123.943C641.335 124.038 641.032 124.123 640.672 124.199C640.312 124.284 639.867 124.327 639.337 124.327C638.409 124.327 637.514 124.123 636.652 123.716C635.8 123.309 635.099 122.703 634.55 121.898C634 121.093 633.726 120.094 633.726 118.901V96.9545ZM660.896 106.969L658.58 107.622C658.353 106.969 658.031 106.377 657.614 105.847C657.198 105.316 656.653 104.895 655.981 104.582C655.318 104.27 654.494 104.114 653.509 104.114C652.032 104.114 650.82 104.464 649.873 105.165C648.926 105.866 648.452 106.77 648.452 107.878C648.452 108.815 648.774 109.578 649.418 110.165C650.072 110.742 651.076 111.202 652.43 111.543L655.725 112.352C657.553 112.797 658.921 113.503 659.83 114.469C660.749 115.435 661.208 116.647 661.208 118.105C661.208 119.336 660.867 120.43 660.185 121.386C659.504 122.343 658.552 123.096 657.33 123.645C656.118 124.185 654.712 124.455 653.112 124.455C650.981 124.455 649.224 123.976 647.842 123.02C646.459 122.054 645.574 120.662 645.185 118.844L647.614 118.247C647.927 119.545 648.538 120.525 649.447 121.188C650.365 121.85 651.573 122.182 653.069 122.182C654.745 122.182 656.085 121.808 657.089 121.06C658.093 120.302 658.594 119.355 658.594 118.219C658.594 117.338 658.301 116.599 657.714 116.003C657.127 115.397 656.237 114.952 655.043 114.668L651.478 113.815C649.584 113.361 648.183 112.641 647.273 111.656C646.364 110.671 645.91 109.45 645.91 107.991C645.91 106.789 646.237 105.733 646.89 104.824C647.543 103.905 648.443 103.186 649.589 102.665C650.735 102.144 652.041 101.884 653.509 101.884C655.507 101.884 657.103 102.338 658.296 103.247C659.499 104.147 660.365 105.387 660.896 106.969Z" fill="white"/>
<path d="M440.69 279L487.085 187.168V186.422H433.232V169.909H507.54V186.795L461.197 279H440.69ZM528.833 264.085L528.141 269.945C527.644 274.419 526.756 278.964 525.477 283.581C524.235 288.233 522.921 292.512 521.536 296.418C520.151 300.325 519.032 303.396 518.18 305.634H505.183C505.68 303.467 506.355 300.52 507.207 296.791C508.095 293.063 508.947 288.872 509.764 284.22C510.58 279.568 511.131 274.845 511.415 270.051L511.788 264.085H528.833ZM550.699 279L597.095 187.168V186.422H543.242V169.909H617.55V186.795L571.207 279H550.699ZM671.403 280.491C663.732 280.491 656.914 279.178 650.948 276.55C645.018 273.922 640.33 270.264 636.885 265.577C633.441 260.889 631.612 255.474 631.399 249.33H651.427C651.605 252.278 652.581 254.852 654.357 257.054C656.133 259.22 658.494 260.907 661.442 262.114C664.389 263.322 667.692 263.925 671.349 263.925C675.256 263.925 678.718 263.251 681.736 261.901C684.755 260.516 687.116 258.599 688.821 256.148C690.525 253.698 691.36 250.875 691.324 247.679C691.36 244.376 690.508 241.464 688.768 238.943C687.028 236.422 684.506 234.451 681.204 233.031C677.937 231.61 673.995 230.9 669.378 230.9H659.737V215.665H669.378C673.178 215.665 676.498 215.009 679.339 213.695C682.216 212.381 684.471 210.534 686.104 208.155C687.738 205.74 688.537 202.952 688.501 199.792C688.537 196.702 687.844 194.021 686.424 191.749C685.039 189.44 683.068 187.647 680.511 186.369C677.99 185.09 675.025 184.451 671.616 184.451C668.278 184.451 665.188 185.055 662.347 186.262C659.506 187.469 657.216 189.192 655.476 191.429C653.736 193.631 652.812 196.259 652.706 199.312H633.689C633.831 193.205 635.589 187.842 638.963 183.226C642.372 178.574 646.917 174.952 652.599 172.359C658.281 169.732 664.655 168.418 671.722 168.418C679.002 168.418 685.323 169.785 690.685 172.519C696.083 175.218 700.256 178.858 703.203 183.439C706.15 188.02 707.624 193.08 707.624 198.62C707.66 204.763 705.849 209.913 702.191 214.067C698.569 218.222 693.81 220.939 687.915 222.217V223.07C695.586 224.135 701.463 226.976 705.547 231.592C709.666 236.173 711.708 241.873 711.672 248.691C711.672 254.799 709.932 260.268 706.452 265.097C703.008 269.891 698.249 273.656 692.177 276.39C686.14 279.124 679.215 280.491 671.403 280.491ZM770.279 281.077C761.508 281.077 753.98 278.858 747.694 274.419C741.444 269.945 736.632 263.499 733.259 255.083C729.921 246.631 728.252 236.457 728.252 224.561C728.287 212.665 729.974 202.544 733.312 194.199C736.686 185.818 741.498 179.426 747.748 175.023C754.033 170.619 761.544 168.418 770.279 168.418C779.015 168.418 786.526 170.619 792.811 175.023C799.097 179.426 803.909 185.818 807.247 194.199C810.62 202.58 812.307 212.7 812.307 224.561C812.307 236.493 810.62 246.685 807.247 255.136C803.909 263.553 799.097 269.98 792.811 274.419C786.561 278.858 779.051 281.077 770.279 281.077ZM770.279 264.405C777.098 264.405 782.478 261.049 786.419 254.337C790.397 247.59 792.385 237.665 792.385 224.561C792.385 215.896 791.48 208.616 789.669 202.722C787.858 196.827 785.301 192.388 781.998 189.405C778.696 186.386 774.789 184.877 770.279 184.877C763.497 184.877 758.135 188.251 754.193 194.998C750.251 201.71 748.262 211.564 748.227 224.561C748.191 233.261 749.061 240.577 750.837 246.507C752.648 252.437 755.205 256.912 758.507 259.93C761.81 262.913 765.734 264.405 770.279 264.405Z" fill="url(#paint0_linear_33_529)"/>
<g filter="url(#filter0_f_33_529)">
<circle cx="742" cy="42" r="119" fill="#FFF711"/>
</g>
<g filter="url(#filter1_f_33_529)">
<circle cx="50" cy="343" r="119" fill="#FF2511"/>
</g>
<g filter="url(#filter2_f_33_529)">
<circle cx="1138" cy="376" r="119" fill="#11FF19"/>
</g>
</g>
<defs>
<filter id="filter0_f_33_529" x="223" y="-477" width="1038" height="1038" filterUnits="userSpaceOnUse" color-interpolation-filters="sRGB">
<feFlood flood-opacity="0" result="BackgroundImageFix"/>
<feBlend mode="normal" in="SourceGraphic" in2="BackgroundImageFix" result="shape"/>
<feGaussianBlur stdDeviation="200" result="effect1_foregroundBlur_33_529"/>
</filter>
<filter id="filter1_f_33_529" x="-469" y="-176" width="1038" height="1038" filterUnits="userSpaceOnUse" color-interpolation-filters="sRGB">
<feFlood flood-opacity="0" result="BackgroundImageFix"/>
<feBlend mode="normal" in="SourceGraphic" in2="BackgroundImageFix" result="shape"/>
<feGaussianBlur stdDeviation="200" result="effect1_foregroundBlur_33_529"/>
</filter>
<filter id="filter2_f_33_529" x="619" y="-143" width="1038" height="1038" filterUnits="userSpaceOnUse" color-interpolation-filters="sRGB">
<feFlood flood-opacity="0" result="BackgroundImageFix"/>
<feBlend mode="normal" in="SourceGraphic" in2="BackgroundImageFix" result="shape"/>
<feGaussianBlur stdDeviation="200" result="effect1_foregroundBlur_33_529"/>
</filter>
<linearGradient id="paint0_linear_33_529" x1="251.62" y1="224" x2="1109.89" y2="288.781" gradientUnits="userSpaceOnUse">
<stop stop-color="#FF0000"/>
<stop offset="1" stop-color="#FFF600"/>
</linearGradient>
<clipPath id="clip0_33_529">
<rect width="1257" height="397" rx="20" fill="white"/>
</clipPath>
</defs>
</svg>
